<?xml version="1.0" encoding="UTF-8"?>
<svg version="1.1" xmlns="http://www.w3.org/2000/svg" width="424" height="424">
    <path
        d="M0 0 C9.45092514 4.24129633 17.0685653 12.28037938 24.62890625 19.171875 C27.22587393 21.47984473 29.89029013 23.67352738 32.59375 25.85546875 C37.36621203 29.71505478 41.88734109 33.78996866 46.40234375 37.9453125 C49.98832284 41.16506394 53.72326492 44.17702051 57.47265625 47.203125 C60.10333557 49.37429702 62.63567424 51.62038232 65.15625 53.91796875 C68.57364372 57.03255543 72.0614735 60.00983495 75.65625 62.91796875 C80.12045457 66.52946009 84.38627114 70.30457569 88.62890625 74.171875 C91.22587393 76.47984473 93.89029013 78.67352738 96.59375 80.85546875 C101.36621203 84.71505478 105.88734109 88.78996866 110.40234375 92.9453125 C113.98832284 96.16506394 117.72326492 99.17702051 121.47265625 102.203125 C124.10333557 104.37429702 126.63567424 106.62038232 129.15625 108.91796875 C132.47614486 111.94079296 135.85389112 114.84309036 139.34375 117.66796875 C148.26168262 124.8932626 156.9152895 132.44645936 165.40625 140.16796875 C168.67774835 143.13764847 172.02594572 145.9613643 175.46875 148.73046875 C180.27493758 152.614736 184.79552142 156.72980423 189.29541016 160.95825195 C193.6841461 165.05585132 198.25940872 168.80664782 203.01171875 172.48046875 C206.50198174 175.63378467 207.10136769 177.56349535 207.40793228 182.33645916 C207.418945 183.96708221 207.4188563 185.59780198 207.41021729 187.22843933 C207.41333727 188.12797201 207.41645725 189.02750469 207.41967177 189.95429593 C207.42766274 192.97504933 207.4213237 195.99560245 207.41503906 199.01635742 C207.41774853 201.17965818 207.42130921 203.34295802 207.42565918 205.5062561 C207.43479341 211.38869026 207.43123393 217.27105442 207.42490101 223.15348983 C207.41984314 229.30857137 207.42453217 235.46364686 207.42767334 241.61872864 C207.43131497 251.96140622 207.42651014 262.30405527 207.41699219 272.64672852 C207.40612165 284.59702351 207.40962225 296.54725019 207.420645 308.49754351 C207.42972941 318.75755846 207.43099706 329.01755287 207.42576766 339.27757055 C207.42265247 345.40517852 207.42222597 351.53275443 207.42884064 357.66036034 C207.43462971 363.42642399 207.43058854 369.19239992 207.41905212 374.95845413 C207.41641328 377.07196342 207.41715735 379.18548012 207.42157745 381.29898643 C207.42706533 384.19028308 207.42015932 387.08130093 207.41021729 389.97257996 C207.41467873 390.80353548 207.41914017 391.634491 207.42373681 392.49062699 C207.36836868 400.82725763 206.28805522 408.10812508 200.9375 414.69140625 C195.2531478 420.20123886 188.3453139 421.54117339 180.69212818 421.54939651 C180.04187368 421.55144915 179.39161917 421.55350178 178.72165999 421.55561662 C176.53364408 421.56128984 174.34569105 421.55982897 172.15766907 421.55841064 C170.576707 421.5609941 168.99574559 421.5640072 167.41478509 421.56741405 C163.06299039 421.57548967 158.71121218 421.57727393 154.35941088 421.57801151 C149.66873584 421.5798611 144.97806938 421.58740797 140.28739929 421.59414673 C130.02702968 421.60773474 119.76666397 421.61375554 109.50628686 421.61815739 C103.10062276 421.62091911 96.69496018 421.62515635 90.2892971 421.62966156 C72.55682755 421.64185501 54.82435922 421.65215406 37.09188557 421.65553665 C35.3891483 421.655866 35.3891483 421.655866 33.6520123 421.656202 C32.51412381 421.65642028 31.37623531 421.65663856 30.20386535 421.65686345 C27.89803588 421.65730692 25.59220642 421.65775348 23.28637695 421.65820312 C21.57071704 421.65853527 21.57071704 421.65853527 19.82039734 421.65887412 C1.28718221 421.66282213 -17.2459936 421.68027589 -35.77919354 421.70356265 C-54.80312397 421.72727321 -73.82703466 421.73973837 -92.8509801 421.74090457 C-103.5337439 421.74182151 -114.21645647 421.74757871 -124.89920616 421.76572418 C-133.99598635 421.78112119 -143.09269948 421.78624799 -152.18949022 421.77798608 C-156.83056921 421.77407812 -161.47151314 421.7750163 -166.11257553 421.78904343 C-170.36338731 421.80177352 -174.61396244 421.80059266 -178.86477385 421.78845271 C-180.40047272 421.78649417 -181.93618832 421.78958144 -183.47186371 421.79829708 C-194.00924524 421.85430272 -203.33435829 421.59083598 -211.40625 414.0234375 C-217.20620479 407.5457706 -216.99298357 399.50726405 -217.0111084 391.32229614 C-217.01690178 390.4162655 -217.02269517 389.51023485 -217.02866411 388.57674873 C-217.04667653 385.54612533 -217.05758125 382.51552042 -217.06835938 379.48486328 C-217.07953894 377.30979241 -217.0910524 375.13472323 -217.10287476 372.95965576 C-217.13936954 365.82338847 -217.16463626 358.68710376 -217.1875 351.55078125 C-217.19144587 350.33617643 -217.19539173 349.12157161 -217.19945717 347.87016058 C-217.23585942 336.41480891 -217.26729773 324.95945103 -217.28856659 313.50406075 C-217.31616669 298.85642046 -217.36700285 284.20944639 -217.44904089 269.56200707 C-217.50479561 259.2586664 -217.53379685 248.95545696 -217.5430398 238.65197074 C-217.54930047 232.49904074 -217.5674534 226.34667773 -217.61442566 220.19391251 C-217.6580607 214.40709138 -217.66858969 208.62114801 -217.65379715 202.83419037 C-217.65412603 200.7121576 -217.66642051 198.59008735 -217.69164658 196.4682045 C-217.8947994 178.42626909 -217.8947994 178.42626909 -213.49597168 173.29098511 C-211.66350555 171.73155022 -211.66350555 171.73155022 -209.84375 170.41796875 C-208.75020764 169.37653821 -207.6663302 168.32474664 -206.59765625 167.2578125 C-205.53813772 166.28567526 -204.47428527 165.31824132 -203.40625 164.35546875 C-202.83769287 163.83726562 -202.26913574 163.3190625 -201.68334961 162.78515625 C-194.73053535 156.46495602 -187.6073618 150.35062228 -180.46899414 144.2421875 C-176.07934938 140.48410876 -171.70743633 136.70614291 -167.34375 132.91796875 C-161.35534423 127.72064499 -155.34574931 122.54886156 -149.3203125 117.39453125 C-146.95709439 115.37291892 -144.59811957 113.34650438 -142.2421875 111.31640625 C-136.90824936 106.7241974 -131.56332787 102.16151918 -126.09375 97.73046875 C-121.71579487 94.1781806 -117.53261349 90.45765818 -113.3671875 86.66015625 C-110.79292642 84.37280971 -108.15085511 82.20248604 -105.46875 80.04296875 C-101.45550889 76.79846115 -97.61939046 73.43070195 -93.84375 69.91796875 C-89.211239 65.60803105 -84.4225305 61.56735935 -79.4921875 57.59765625 C-76.87099881 55.44039476 -74.35220719 53.20485875 -71.84375 50.91796875 C-67.54383209 46.99905623 -63.08455453 43.32626006 -58.5625 39.66796875 C-55.92227271 37.48295306 -53.3764528 35.22625484 -50.84375 32.91796875 C-46.5430245 28.9983202 -42.08404997 25.32387728 -37.55859375 21.66796875 C-34.93096181 19.49024789 -32.4154391 17.23043742 -29.90625 14.91796875 C-10.03906896 -3.16911287 -10.03906896 -3.16911287 0 0 Z "
        fill="#6B4775" transform="translate(216.84375,2.58203125)" />
    <path
        d="M0 0 C6.87621896 8.21326153 10.81341362 15.47239855 10.49609375 26.3359375 C9.55827344 35.29733158 5.88933477 43.28390379 -0.671875 49.51171875 C-5.15907316 53.1032165 -7.82161744 53.99367641 -13.75 55.6875 C-13.42 87.0375 -13.09 118.3875 -12.75 150.6875 C-9.78 151.6775 -9.78 151.6775 -6.75 152.6875 C-5.95078125 151.94886719 -5.1515625 151.21023437 -4.328125 150.44921875 C24.97659503 123.37586825 24.97659503 123.37586825 35.15625 114.53125 C38.66636488 111.44025331 42.10769211 108.27360595 45.5625 105.12109375 C48.53839466 102.42635193 51.55343086 99.78178737 54.59375 97.16015625 C56.20892845 95.7240188 57.73826051 94.23150223 59.25 92.6875 C58.93546875 91.98109375 58.6209375 91.2746875 58.296875 90.546875 C55.16796752 82.00075457 55.75213638 72.90924287 59.1015625 64.56640625 C62.89960032 56.39908102 68.27074367 50.86591183 76.25 46.6875 C85.72873953 43.42050185 96.76314665 42.94496031 105.97265625 47.296875 C115.08312444 52.86004254 121.3801799 60.38622437 124.25 70.6875 C125.40846211 82.81094066 123.6152302 92.3318745 115.9453125 101.87109375 C110.20693149 108.01935912 103.61501732 112.19729537 95.171875 112.96875 C89.06445393 113.13918966 83.84747035 112.70415329 78.15234375 110.44140625 C77.52457031 110.19261719 76.89679688 109.94382812 76.25 109.6875 C75.62480469 109.3884375 74.99960937 109.089375 74.35546875 108.78125 C71.97212085 108.44996287 71.97212085 108.44996287 69.5859375 110.71484375 C68.58795935 111.67357652 67.60158228 112.64448179 66.625 113.625 C65.55851192 114.65236442 64.48946643 115.6770802 63.41796875 116.69921875 C62.88606934 117.20888184 62.35416992 117.71854492 61.80615234 118.24365234 C59.61715319 120.27467541 57.2951907 122.10694994 54.9375 123.9375 C51.34062866 126.75418872 48.112852 129.71393057 44.9375 132.9921875 C43.22937251 134.70822298 41.4582618 136.2938117 39.625 137.875 C28.5289761 147.4588978 17.95807273 157.67552606 7.25 167.6875 C8.24 170.1625 8.24 170.1625 9.25 172.6875 C16.57861655 172.76548865 23.90574588 172.79474516 31.23475838 172.76265812 C34.63858409 172.74926866 38.04070022 172.75234447 41.44433594 172.79370117 C45.36195228 172.84056846 49.27749761 172.81465328 53.1953125 172.78515625 C55.01906906 172.82202293 55.01906906 172.82202293 56.87966919 172.8596344 C63.1507789 172.89152163 63.1507789 172.89152163 68.2723999 169.74459839 C69.88232599 167.41268175 69.88232599 167.41268175 71.06686401 164.98997498 C74.41045403 158.48308782 80.48696652 154.15401809 87.25 151.6875 C96.85627083 149.34871838 106.50562029 149.93178472 115.25 154.6875 C124.08763285 161.00009489 130.20185145 168.8881713 132.25 179.6875 C133.31274899 190.11879007 130.85696126 198.57297546 124.625 207 C118.51824886 214.19519647 111.00214564 218.44213151 101.625 219.375 C90.58061889 220.17146979 82.88577902 216.95746819 74.23828125 210.08984375 C69.07039703 205.34794565 67.62418958 201.43587917 64.25 194.6875 C45.77 194.3575 27.29 194.0275 8.25 193.6875 C7.92 195.3375 7.59 196.9875 7.25 198.6875 C8.57214522 200.80365131 8.57214522 200.80365131 10.65234375 202.60546875 C11.37744141 203.30220703 12.10253906 203.99894531 12.84960938 204.71679688 C13.62111328 205.42900391 14.39261719 206.14121094 15.1875 206.875 C16.70063249 208.30174037 18.20996494 209.73252534 19.71484375 211.16796875 C20.391521 211.79598389 21.06819824 212.42399902 21.76538086 213.07104492 C23.25 214.6875 23.25 214.6875 23.25 216.6875 C23.91 216.6875 24.57 216.6875 25.25 216.6875 C26.44921875 217.9453125 26.44921875 217.9453125 27.9375 219.8125 C32.13199511 224.76323532 36.8377168 229.08066703 41.62207031 233.44799805 C45.34739918 236.85949338 48.80807576 240.36355389 52.1875 244.125 C54.79695939 246.87338268 54.79695939 246.87338268 58.25390625 248.0078125 C60.32792331 247.73993554 62.23494168 247.24095896 64.25 246.6875 C73.14758755 245.66781344 81.2616537 248.33805392 88.5625 253.4375 C96.35371609 259.79181149 100.68637011 267.6012475 102.0625 277.5 C102.72367964 286.67210901 100.83468712 295.28643406 95.25 302.6875 C88.76808314 309.63947954 81.24371992 315.061962 71.5859375 315.92578125 C60.74538477 316.19751014 52.2259281 313.13169956 44.25 305.6875 C36.21525176 296.90575703 34.53812615 288.3903266 34.8828125 276.77734375 C35.19443195 271.79939368 36.75222249 267.9608061 39.25 263.6875 C39.58 262.6975 39.91 261.7075 40.25 260.6875 C24.74 245.1775 9.23 229.6675 -6.75 213.6875 C-9.72 214.6775 -12.69 215.6675 -15.75 216.6875 C-24.92622647 218.36765414 -31.96904644 216.61448452 -40.75 213.6875 C-56.26 229.1975 -71.77 244.7075 -87.75 260.6875 C-86.1 264.6475 -84.45 268.6075 -82.75 272.6875 C-82.31571056 275.82193683 -82.06360131 278.24158235 -82.1875 281.3125 C-82.20554687 282.03759766 -82.22359375 282.76269531 -82.2421875 283.50976562 C-82.67010609 293.0865837 -85.93957784 299.75917329 -92.53515625 306.7109375 C-95.95748232 309.76507681 -99.58115605 311.81897861 -103.75 313.6875 C-104.678125 314.120625 -105.60625 314.55375 -106.5625 315 C-116.66459245 317.17888268 -125.10414287 315.65571596 -133.90234375 310.40234375 C-141.64615395 305.06639776 -147.25321944 297.99531099 -149.1484375 288.7421875 C-150.7805719 278.62295422 -148.59101182 268.12925431 -142.75 259.6875 C-136.53826916 252.71588752 -128.23168753 247.16565296 -118.671875 246.5546875 C-117.59679687 246.55855469 -117.59679687 246.55855469 -116.5 246.5625 C-115.79359375 246.55992187 -115.0871875 246.55734375 -114.359375 246.5546875 C-111.75 246.6875 -111.75 246.6875 -108.171875 247.8828125 C-104.83734566 248.31385381 -103.84292298 247.75578972 -101.08105469 245.72607422 C-98.01796264 242.80876905 -95.11946162 239.79275692 -92.25 236.6875 C-90.75477239 235.11197223 -89.25308615 233.54280366 -87.7507782 231.97402954 C-86.77395165 230.95266578 -85.79997883 229.92856481 -84.82893372 228.90170288 C-81.55605193 225.45662728 -78.13703089 222.30815557 -74.51513672 219.23925781 C-71.64372507 216.71495733 -69.11087956 213.90688626 -66.5625 211.0625 C-65.5700319 209.96522106 -64.57655434 208.86885424 -63.58203125 207.7734375 C-62.87747803 206.98598145 -62.87747803 206.98598145 -62.15869141 206.18261719 C-60.81802938 204.75970311 -59.35341717 203.45667802 -57.88671875 202.1640625 C-55.09675332 199.47550847 -55.09675332 199.47550847 -55.75 193.6875 C-74.23 194.0175 -92.71 194.3475 -111.75 194.6875 C-113.4 197.9875 -115.05 201.2875 -116.75 204.6875 C-123.15610454 212.32987032 -130.61455703 217.07290975 -140.3125 219.625 C-151.09571919 219.82105853 -158.31105212 217.73056029 -167.4375 212 C-174.99286746 204.44463254 -179.74780102 195.99262701 -180.125 185.25 C-179.73672207 173.66637509 -175.26497859 165.85423651 -167.0625 157.9375 C-159.87636221 151.97859637 -151.82680682 150.01703057 -142.609375 150.36328125 C-132.35286739 151.52624591 -124.26455141 156.78972192 -117.75 164.6875 C-117.11167236 166.45625488 -117.11167236 166.45625488 -116.46044922 168.26074219 C-115.46221731 170.21972672 -115.46221731 170.21972672 -113.75 171.6875 C-109.41787521 172.78024727 -105.11940805 172.64064409 -100.671875 172.58984375 C-99.39016418 172.60213516 -98.10845337 172.61442657 -96.78790283 172.62709045 C-93.387752 172.6593066 -89.9889503 172.6498797 -86.58874512 172.63171387 C-83.1163051 172.62055238 -79.64420997 172.64886241 -76.171875 172.67382812 C-69.36440178 172.71696719 -62.55753944 172.71610752 -55.75 172.6875 C-55.08253775 170.30742045 -55.08253775 170.30742045 -54.75 167.6875 C-56.54626301 165.12162604 -56.54626301 165.12162604 -59.1875 162.8125 C-60.11949219 161.93464844 -61.05148438 161.05679688 -62.01171875 160.15234375 C-64.79207742 157.64962432 -67.57958093 155.16259437 -70.421875 152.73046875 C-73.59266862 149.94804415 -76.6670843 147.06658991 -79.75 144.1875 C-84.05187921 140.17456142 -88.37428612 136.2041419 -92.828125 132.359375 C-95.16105074 130.32991927 -97.45511245 128.259853 -99.75 126.1875 C-103.42966925 122.86847214 -107.11634375 119.56099107 -110.87890625 116.3359375 C-112.15207796 115.21427056 -113.38875629 114.05009988 -114.58984375 112.8515625 C-116.2531378 111.24286234 -117.75264822 109.85656609 -119.75 108.6875 C-122.84802862 109.05271065 -122.84802862 109.05271065 -125.75 110.6875 C-133.82458895 113.65367553 -142.82439725 114.07000581 -151 111.1875 C-160.70301563 106.66677681 -166.53750022 99.37624949 -170.75 89.6875 C-173.12529275 82.67820054 -172.99834603 72.56972584 -170.125 65.75 C-169.0078125 63.671875 -169.0078125 63.671875 -167.75 61.6875 C-167.31429687 60.99140625 -166.87859375 60.2953125 -166.4296875 59.578125 C-161.51507448 52.43447985 -154.45079 46.34479333 -145.75 44.6875 C-133.51328365 43.71073328 -124.39034354 44.76574799 -114.828125 52.65625 C-107.26119634 60.05249606 -104.46224264 68.0273642 -103.76953125 78.3828125 C-103.74750149 82.11024861 -104.26005473 85.31219543 -105.27734375 88.8828125 C-105.8766797 90.86026004 -105.8766797 90.86026004 -105.75 93.6875 C-104.26283493 95.57991618 -104.26283493 95.57991618 -102.25 97.4375 C-101.52167969 98.13875 -100.79335937 98.84 -100.04296875 99.5625 C-95.83461906 103.46257195 -91.56399642 107.25317725 -87.0625 110.8125 C-84.42809746 112.94850206 -82.12124033 115.26111454 -79.75 117.6875 C-75.38234929 122.14928112 -70.95443711 126.43534966 -66.21875 130.50390625 C-62.16125951 134.09273091 -58.23263757 137.82054538 -54.29272461 141.53759766 C-53.0618001 142.69465053 -51.82348794 143.84389825 -50.57763672 144.98486328 C-49.3451074 146.13309457 -48.14350945 147.31532355 -46.97314453 148.52685547 C-46.10665283 149.37787842 -46.10665283 149.37787842 -45.22265625 150.24609375 C-44.47060913 151.02231079 -44.47060913 151.02231079 -43.70336914 151.81420898 C-40.98520134 153.2806852 -40.98520134 153.2806852 -34.75 150.6875 C-34.255 103.6625 -34.255 103.6625 -33.75 55.6875 C-36.72 54.6975 -39.69 53.7075 -42.75 52.6875 C-49.88181203 47.73149503 -53.87074319 41.30022126 -57.125 33.3125 C-58.77447331 23.74555482 -58.53789274 14.70002815 -53.2734375 6.34375 C-46.70228754 -2.65782529 -39.18845901 -7.45288525 -28.5 -10.125 C-17.12677401 -10.6936613 -8.62019445 -7.24879988 0 0 Z "
        fill="#FFFFFF" transform="translate(232.75,95.3125)" />
    <path
        d="M0 0 C4.20146305 2.42909446 7.1603186 5.49148501 9 10 C9.45989183 14.7522156 9.52078851 16.99699991 7.3125 21.25 C1.89464602 27.69285338 1.89464602 27.69285338 -2.14453125 28.34765625 C-6.89542393 28.52886775 -10.23104981 28.12284444 -14 25 C-17.85203569 20.61295936 -19.35378759 18.04157699 -19.2890625 12.09765625 C-18.67094604 7.61213547 -15.42172918 3.82664585 -12 1 C-7.90162668 -0.36612444 -4.27580501 -0.75872494 0 0 Z "
        fill="#6B4775" transform="translate(328,160)" />
    <path
        d="M0 0 C4.71362305 1.9901964 7.72172827 5.44345654 10 10 C10.51194637 16.14335649 10.02212087 19.05853722 6 24 C3.59655042 26.78800151 1.6896461 27.74131387 -2.015625 28.30859375 C-6.60797393 28.57353696 -9.33450637 28.24871797 -12.9375 25.25 C-16.56744395 21.8517546 -17.89393744 19.09597979 -18.375 14.125 C-18.22172078 8.62738514 -15.43205966 5.55480764 -11.8125 1.625 C-7.84017594 -0.67012057 -4.48488713 -0.66987385 0 0 Z "
        fill="#6B4775" transform="translate(99,160)" />
    <path
        d="M0 0 C3.54746673 2.80841116 6.7459642 5.86873864 7.30078125 10.5234375 C7.34101382 20.31336406 7.34101382 20.31336406 4 24 C0.15755156 27.37669711 -3.64258914 27.51263101 -8.5625 27.3515625 C-13.22526146 26.67904883 -15.85190292 24.30117669 -18.875 20.875 C-20.56610088 16.55329774 -20.6527451 12.57654989 -20 8 C-18.23744485 4.27151796 -16.67191647 2.49593835 -13.375 0.0625 C-8.6978157 -1.40994691 -4.72493127 -1.30941334 0 0 Z "
        fill="#6B4775" transform="translate(337,267)" />
    <path
        d="M0 0 C3.57669992 2.20689995 5.42095628 4.14934953 7 8 C7.56216815 12.49004431 7.53058095 16.64407091 5.875 20.875 C2.85190292 24.30117669 0.22526146 26.67904883 -4.4375 27.3515625 C-9.35741086 27.51263101 -13.15755156 27.37669711 -17 24 C-20.59279811 20.03553312 -20.50898459 15.77554377 -20.34375 10.66015625 C-19.84543364 6.80386715 -18.70670583 4.77610854 -16 2 C-10.60810832 -1.27742435 -5.97445858 -1.6589491 0 0 Z "
        fill="#6B4775" transform="translate(94,267)" />
    <path
        d="M0 0 C3.85247583 2.03527025 6.90224752 4.13571911 9 8 C10.2853902 13.24043696 10.1201648 17.02222177 8 22 C4.44472597 25.89387156 1.30242389 27.86771539 -3.9140625 28.1875 C-7.88054642 27.83096212 -10.90482712 26.48707048 -14 24 C-17.1915671 20.11765536 -18.32911691 16.31156702 -18.0625 11.3125 C-17.17661852 6.06952797 -14.38328391 3.72582628 -10.1875 0.6875 C-6.76421074 -0.38839091 -3.51605583 -0.55552327 0 0 Z "
        fill="#6B4775" transform="translate(305,363)" />
    <path
        d="M0 0 C3.91005916 1.35229319 6.50981266 3.34131076 9 6.6875 C10.73518751 12.43530863 9.95867104 17.008914 7.375 22.375 C4.09606372 25.99908747 0.94248585 27.81218175 -4.01953125 28.12890625 C-9.28799463 27.79647931 -12.42853514 25.99663924 -16 22 C-18.27008047 17.2991254 -18.39182831 12.79308408 -16.90625 7.828125 C-13.59160909 1.14169421 -6.99363603 -0.89629631 0 0 Z "
        fill="#6B4775" transform="translate(121,363)" />
    <path
        d="M0 0 C3.80338639 2.92144172 5.67640738 5.93404785 7.0625 10.5 C6.98634603 14.76462211 6.09862816 17.29242358 4 21 C-0.32288823 25.00657933 -3.02324086 26.31166968 -8.97265625 26.21484375 C-13.15517456 25.77160963 -15.41169995 23.60464172 -18.25 20.6875 C-20.70482041 16.91759723 -21.40374221 14.22834644 -20.59375 9.7578125 C-19.4113254 5.46448509 -18.49419871 3.41183226 -15 0.5 C-9.40497771 -2.29751114 -5.77209809 -2.31080588 0 0 Z "
        fill="#6B4775" transform="translate(216,266)" />
    <path
        d="M0 0 C3.85247583 2.03527025 6.90224752 4.13571911 9 8 C10.48734083 13.63064741 9.89253817 16.96138512 7 22 C3.97326114 25.1643179 1.8023987 26.747393 -2.375 28.0625 C-7.07546135 27.98145756 -10.18898465 26.70986419 -14 24 C-17.08157857 20.32198687 -17.83585552 16.76018992 -18 12 C-16.50624711 7.36150419 -14.80130239 4.08855819 -11 1 C-7.27400457 -0.24199848 -3.87020783 -0.53508555 0 0 Z "
        fill="#6B4775" transform="translate(213,106)" />
</svg>